<svg id="Layer_1" data-name="Layer 1" xmlns="http://www.w3.org/2000/svg" width="100%" height="auto" viewBox="0 0 640 640"><title>Kashan.Link-logo</title><rect x="10.65075" y="192.74203" width="298.69875" height="147.84919" transform="translate(-141.69883 191.24202) rotate(-45)" fill="#ea4335"/><path d="M213.33334,110.90927l102.424,102.424L106.66669,422.42406,4.24261,320,213.33334,110.90927m0-4.2426L0,320,106.66669,426.66667,320,213.33332,213.33334,106.66667Z" fill="#fff"/><rect x="299.40878" y="10.65075" width="147.84919" height="298.69875" transform="translate(-3.79036 310.84951) rotate(-45)" fill="#34a853"/><path d="M320,4.24261,529.09074,213.33335,426.66669,315.7574,217.576,106.66666,320,4.24261M320,0,213.33334,106.66666,426.66669,320,533.33334,213.33335,320,0Z" fill="#fff"/><rect x="192.74203" y="330.6505" width="147.84919" height="298.69875" transform="translate(-261.30632 329.15049) rotate(-45)" fill="#fbbc05"/><path d="M213.33334,324.2426,422.42409,533.33334,320,635.75739,110.9093,426.66665l102.424-102.424m0-4.2426L106.66669,426.66665,320,640,426.66669,533.33334,213.33334,320Z" fill="#fff"/><rect x="330.6505" y="299.40878" width="298.69875" height="147.84919" transform="translate(-123.39803 448.75659) rotate(-44.99987)" fill="#4285f4"/><path d="M533.33335,217.57594,635.7574,320,426.66666,529.09073l-102.424-102.424L533.33335,217.57594m0-4.24261L320,426.66668,426.66666,533.33333,640,320,533.33335,213.33333Z" fill="#fff"/></svg>